<?xml version="1.0" encoding="utf-8"?>
<!-- Generator: Adobe Illustrator 21.0.0, SVG Export Plug-In . SVG Version: 6.00 Build 0)  -->
<svg version="1.1" id="Layer_1" xmlns="http://www.w3.org/2000/svg" xmlns:xlink="http://www.w3.org/1999/xlink" x="0px" y="0px"
	 viewBox="0 0 256 256" style="enable-background:new 0 0 256 256;" xml:space="preserve">
<style type="text/css">
	.st0{fill:#CAECFC;}
	.st1{fill:#6DCC6D;}
	.st2{fill:#FFCD29;}
	.st3{fill:#55ACD5;}
	.st4{fill:#EA4647;}
	.st5{fill:#231F20;}
</style>
<g id="Layer_27">
	<path class="st0" d="M103.3,13.3H29.1c-10,0-18.1,8.1-18.1,18.1v102.1c0,10,8.1,18.1,18.1,18.1h19.2c2.2,0,4.3,1.1,5.5,3L64.6,171
		c0.6,0.9,1.7,1.1,2.6,0.5c0.2-0.1,0.4-0.3,0.5-0.5l10.8-16.4c1.2-1.9,3.3-3,5.5-3h19.2c10,0,18.1-8.1,18.1-18.1V31.4
		C121.4,21.4,113.3,13.3,103.3,13.3z"/>
	<path class="st0" d="M226.9,104.4h-19.2c-2.2,0-4.3-1.1-5.5-3L191.4,85c-0.6-0.9-1.7-1.1-2.6-0.5c-0.2,0.1-0.4,0.3-0.5,0.5
		l-10.8,16.4c-1.2,1.9-3.3,3-5.5,3h-19.2c-10,0-18.1,8.1-18.1,18.1v102.1c0,10,8.1,18.1,18.1,18.1h74.2c10,0,18.1-8.1,18.1-18.1
		V122.5C245,112.5,236.9,104.4,226.9,104.4z"/>
	<circle class="st1" cx="66.2" cy="213" r="29.7"/>
	<path class="st2" d="M241,19.5h-1.8v-1.8c0-1.4-1.1-2.5-2.5-2.5s-2.5,1.1-2.5,2.5v1.8h-1.8c-1.4,0-2.5,1.1-2.5,2.5s1.1,2.5,2.5,2.5
		h1.8v1.8c0,1.4,1.1,2.5,2.5,2.5s2.5-1.1,2.5-2.5v-1.8h1.8c1.4,0,2.5-1.1,2.5-2.5S242.4,19.5,241,19.5z"/>
	<path class="st1" d="M16.9,225.5c-0.1-0.3-0.2-0.6-0.4-0.9c-0.1-0.1-0.2-0.3-0.3-0.4c-1-0.9-2.5-0.9-3.5,0
		c-0.1,0.1-0.2,0.2-0.3,0.4c-0.1,0.1-0.2,0.3-0.2,0.4c-0.1,0.2-0.1,0.3-0.1,0.5c-0.1,0.3-0.1,0.7,0,1c0,0.2,0.1,0.3,0.1,0.5
		c0.1,0.1,0.1,0.3,0.2,0.4c0.1,0.1,0.2,0.3,0.3,0.4c1,1,2.5,1,3.5,0c0,0,0,0,0,0c0.1-0.1,0.2-0.2,0.3-0.4c0.1-0.1,0.2-0.3,0.2-0.4
		c0.1-0.1,0.1-0.3,0.1-0.5C16.9,226.1,16.9,225.8,16.9,225.5z"/>
	<path class="st3" d="M222,2c0-0.2-0.1-0.3-0.1-0.5c-0.1-0.2-0.1-0.3-0.2-0.4c-0.1-0.1-0.2-0.3-0.3-0.4c-1-0.9-2.5-0.9-3.5,0
		c-0.1,0.1-0.2,0.2-0.3,0.4c-0.1,0.1-0.2,0.3-0.2,0.4c-0.1,0.2-0.1,0.3-0.1,0.5c0,0.2,0,0.3-0.1,0.5c0,0.2,0,0.3,0.1,0.5
		c0,0.2,0.1,0.3,0.1,0.5c0.1,0.1,0.1,0.3,0.2,0.4c0.1,0.1,0.2,0.3,0.3,0.4c1,1,2.5,1,3.5,0c0,0,0,0,0,0c0.1-0.1,0.2-0.2,0.3-0.4
		c0.1-0.1,0.2-0.3,0.2-0.4c0.1-0.1,0.1-0.3,0.1-0.5c0-0.2,0.1-0.3,0.1-0.5C222,2.3,222,2.1,222,2z"/>
	<path class="st4" d="M232.2,64c-0.1-0.3-0.2-0.6-0.4-0.9c-0.1-0.1-0.2-0.3-0.3-0.4c-1-0.9-2.5-0.9-3.5,0c-0.1,0.1-0.2,0.2-0.3,0.4
		c-0.1,0.1-0.2,0.3-0.2,0.4c-0.1,0.2-0.1,0.3-0.1,0.5c-0.1,0.3-0.1,0.7,0,1c0,0.2,0.1,0.3,0.1,0.5c0.1,0.1,0.1,0.3,0.2,0.4
		c0.1,0.1,0.2,0.3,0.3,0.4c1,1,2.5,1,3.5,0c0,0,0,0,0,0c0.1-0.1,0.2-0.2,0.3-0.4c0.1-0.1,0.2-0.3,0.2-0.4c0.1-0.1,0.1-0.3,0.1-0.5
		C232.3,64.7,232.3,64.3,232.2,64z"/>
	<path class="st2" d="M41.2,247.5c-4.1-0.8-7.2-4-8-8c0-0.1-0.1-0.2-0.2-0.2c-0.1,0-0.1,0.1-0.2,0.2c-0.8,4.1-4,7.2-8,8
		c-0.1,0-0.2,0.1-0.2,0.2c0,0.1,0.1,0.1,0.2,0.2c4.1,0.8,7.2,4,8,8c0,0.1,0.1,0.2,0.2,0.2c0.1,0,0.1-0.1,0.2-0.2c0.8-4.1,4-7.2,8-8
		c0.1,0,0.2-0.1,0.2-0.2C41.4,247.5,41.3,247.5,41.2,247.5z"/>
	<path class="st5" d="M103.3,10.8H29.1C17.7,10.8,8.5,20,8.5,31.4v102.1c0,11.4,9.2,20.6,20.6,20.6h19.2c1.4,0,2.7,0.7,3.5,1.9
		l10.8,16.4c1.3,2,4,2.6,6.1,1.2c0.5-0.3,0.9-0.8,1.2-1.2L80.7,156c0.8-1.2,2.1-1.9,3.5-1.9h19.2c11.4,0,20.6-9.2,20.6-20.6V31.4
		C123.9,20,114.7,10.8,103.3,10.8z M118.9,133.5c0,8.6-7,15.6-15.6,15.6H84.1c-3.1,0-5.9,1.5-7.6,4.1l-10.3,15.6l-10.3-15.6
		c-1.7-2.6-4.6-4.1-7.6-4.1H29.1c-8.6,0-15.6-7-15.6-15.6V31.4c0-8.6,7-15.6,15.6-15.6h74.2c8.6,0,15.6,7,15.6,15.6V133.5z"/>
	<path class="st5" d="M66.2,180.8C48.4,180.8,34,195.2,34,213s14.4,32.2,32.2,32.2c17.8,0,32.2-14.4,32.2-32.2c0,0,0,0,0,0
		C98.4,195.2,84,180.8,66.2,180.8z M66.2,240.2C51.2,240.2,39,228,39,213c0-15,12.2-27.2,27.2-27.2c15,0,27.2,12.2,27.2,27.2
		C93.4,228,81.2,240.2,66.2,240.2z"/>
	<path class="st5" d="M81.2,203.3c-1-1-2.6-1-3.5,0l-16.1,16.1l-6.1-6.7c-0.9-1-2.5-1.1-3.5-0.2c-1,0.9-1.1,2.5-0.2,3.5l7.9,8.6
		c0.5,0.5,1.1,0.8,1.8,0.8h0.1c0.7,0,1.3-0.3,1.8-0.7l17.9-17.9C82.2,205.8,82.2,204.3,81.2,203.3z"/>
	<path class="st5" d="M226.9,101.9h-19.2c-1.4,0-2.7-0.7-3.5-1.9l-10.8-16.4c-1.3-2-4.1-2.6-6.1-1.2c-0.5,0.3-0.9,0.7-1.2,1.2
		L175.3,100c-0.8,1.2-2.1,1.9-3.5,1.9h-19.2c-11.4,0-20.6,9.2-20.6,20.6v102.1c0,11.4,9.2,20.6,20.6,20.6h74.2
		c11.4,0,20.6-9.2,20.6-20.6V122.5C247.5,111.1,238.3,101.9,226.9,101.9z M242.5,224.6c0,8.6-7,15.6-15.6,15.6h-74.2
		c-8.6,0-15.6-7-15.6-15.6V122.5c0-8.6,7-15.6,15.6-15.6h19.2c3.1,0,5.9-1.5,7.6-4.1l10.3-15.6l10.3,15.6c1.7,2.6,4.6,4.1,7.6,4.1
		h19.2c8.6,0,15.6,7,15.6,15.6V224.6z"/>
	<circle class="st4" cx="189.8" cy="43" r="29.7"/>
	<path class="st5" d="M189.8,10.8c-17.8,0-32.2,14.4-32.2,32.2c0,17.8,14.4,32.2,32.2,32.2c17.8,0,32.2-14.4,32.2-32.2
		C222,25.2,207.6,10.8,189.8,10.8z M189.8,70.2c-15,0-27.2-12.2-27.2-27.2c0-15,12.2-27.2,27.2-27.2c15,0,27.2,12.2,27.2,27.2
		c0,0,0,0,0,0C217,58,204.8,70.2,189.8,70.2z"/>
	<path class="st5" d="M200.5,50.2l-17.9-17.9c-1-1-2.6-0.9-3.5,0.1c-0.9,1-0.9,2.5,0,3.5L197,53.7c1,1,2.5,1,3.5,0.1
		S201.5,51.2,200.5,50.2C200.6,50.2,200.5,50.2,200.5,50.2L200.5,50.2z"/>
	<path class="st5" d="M200.5,32.3c-1-1-2.6-1-3.5,0l-17.9,17.9c-1,1-1,2.5-0.1,3.5c1,1,2.5,1,3.5,0.1c0,0,0,0,0.1-0.1l17.9-17.9
		C201.5,34.8,201.5,33.2,200.5,32.3z"/>
	<path class="st5" d="M99.3,48.5H48c-1.4,0-2.5,1.1-2.5,2.5s1.1,2.5,2.5,2.5h51.3c1.4,0,2.5-1.1,2.5-2.5S100.7,48.5,99.3,48.5z"/>
	<path class="st5" d="M99.3,62H48c-1.4,0-2.5,1.1-2.5,2.5c0,1.4,1.1,2.5,2.5,2.5h51.3c1.4,0,2.5-1.1,2.5-2.5
		C101.8,63.1,100.7,62,99.3,62z"/>
	<path class="st5" d="M99.3,75.6H48c-1.4,0-2.5,1.1-2.5,2.5s1.1,2.5,2.5,2.5h51.3c1.4,0,2.5-1.1,2.5-2.5S100.7,75.6,99.3,75.6z"/>
	<path class="st5" d="M99.3,89.1H48c-1.4,0-2.5,1.1-2.5,2.5s1.1,2.5,2.5,2.5h51.3c1.4,0,2.5-1.1,2.5-2.5S100.7,89.1,99.3,89.1z"/>
	<path class="st5" d="M99.3,102.6H48c-1.4,0-2.5,1.1-2.5,2.5s1.1,2.5,2.5,2.5h51.3c1.4,0,2.5-1.1,2.5-2.5S100.7,102.6,99.3,102.6z"
		/>
	<path class="st5" d="M99.3,116.2H48c-1.4,0-2.5,1.1-2.5,2.5s1.1,2.5,2.5,2.5h51.3c1.4,0,2.5-1.1,2.5-2.5S100.7,116.2,99.3,116.2z"
		/>
	<path class="st5" d="M35.4,48.5h-2.4c-1.4,0-2.5,1.1-2.5,2.5s1.1,2.5,2.5,2.5h2.4c1.4,0,2.5-1.1,2.5-2.5S36.8,48.5,35.4,48.5z"/>
	<path class="st5" d="M35.4,75.6h-2.4c-1.4,0-2.5,1.1-2.5,2.5s1.1,2.5,2.5,2.5h2.4c1.4,0,2.5-1.1,2.5-2.5S36.8,75.6,35.4,75.6z"/>
	<path class="st5" d="M35.4,102.6h-2.4c-1.4,0-2.5,1.1-2.5,2.5s1.1,2.5,2.5,2.5h2.4c1.4,0,2.5-1.1,2.5-2.5S36.8,102.6,35.4,102.6z"
		/>
	<path class="st5" d="M219.5,139.4h-51.3c-1.4,0-2.5,1.1-2.5,2.5s1.1,2.5,2.5,2.5h51.3c1.4,0,2.5-1.1,2.5-2.5
		S220.9,139.4,219.5,139.4z"/>
	<path class="st5" d="M219.5,153h-51.3c-1.4,0-2.5,1.1-2.5,2.5s1.1,2.5,2.5,2.5h51.3c1.4,0,2.5-1.1,2.5-2.5S220.9,153,219.5,153z"/>
	<path class="st5" d="M219.5,166.5h-51.3c-1.4,0-2.5,1.1-2.5,2.5s1.1,2.5,2.5,2.5h51.3c1.4,0,2.5-1.1,2.5-2.5
		S220.9,166.5,219.5,166.5z"/>
	<path class="st5" d="M219.5,180h-51.3c-1.4,0-2.5,1.1-2.5,2.5s1.1,2.5,2.5,2.5h51.3c1.4,0,2.5-1.1,2.5-2.5S220.9,180,219.5,180z"/>
	<path class="st5" d="M219.5,193.6h-51.3c-1.4,0-2.5,1.1-2.5,2.5s1.1,2.5,2.5,2.5h51.3c1.4,0,2.5-1.1,2.5-2.5
		S220.9,193.6,219.5,193.6z"/>
	<path class="st5" d="M219.5,207.1h-51.3c-1.4,0-2.5,1.1-2.5,2.5s1.1,2.5,2.5,2.5h51.3c1.4,0,2.5-1.1,2.5-2.5
		S220.9,207.1,219.5,207.1z"/>
	<path class="st5" d="M155.7,139.4h-2.4c-1.4,0-2.5,1.1-2.5,2.5s1.1,2.5,2.5,2.5h2.4c1.4,0,2.5-1.1,2.5-2.5S157,139.4,155.7,139.4z"
		/>
	<path class="st5" d="M155.7,166.5h-2.4c-1.4,0-2.5,1.1-2.5,2.5s1.1,2.5,2.5,2.5h2.4c1.4,0,2.5-1.1,2.5-2.5S157,166.5,155.7,166.5z"
		/>
	<path class="st5" d="M155.7,193.6h-2.4c-1.4,0-2.5,1.1-2.5,2.5s1.1,2.5,2.5,2.5h2.4c1.4,0,2.5-1.1,2.5-2.5S157,193.6,155.7,193.6z"
		/>
</g>
</svg>
